#!OML:ASF X:\für Bonn\!DataBase\2005_08_11_Bastian_Final\c3d\Bastian.ASF
:FULLY-SPECIFIED
:DEGREES
235
root 0.654699 17.3366 -5.96445 168.03 -21.8137 -176.18
lowerback 13.7084 -2.59838 3.11859
upperback 6.7395 -3.85092 1.68745
thorax -0.64085 -2.231 0.546503
lowerneck -4.04235 -8.67322 0.0308448
upperneck -13.1736 -11.8718 11.9996
head -2.80345 -6.78874 4.08033
rclavicle -2.48481e-015 -6.55989e-015
rhumerus -226.116 -169.255 118.808
rradius 42.6508
rwrist -156.766
rhand -22.8594 6.36037
rfingers 7.12502
rthumb 3.57885 -23.5893
lclavicle -2.48481e-015 -6.55989e-015
lhumerus -79.0276 35.8682 12.5891
lradius 22.7263
lwrist 144.534
lhand -28.25 7.57648
lfingers 7.12502
lthumb -1.62732 37.55
rfemur -18.8496 7.25412 24.6184
rtibia 37.5961
rfoot -11.8735 3.6967
rtoes -17.9247
lfemur 19.5941 -1.55626 -15.0834
ltibia 14.7444
lfoot -16.5587 -4.23357
ltoes -16.6924
236
root 0.681531 17.3378 -5.84421 168.21 -21.2651 -176.374
lowerback 13.9285 -2.51714 2.83295
upperback 6.70842 -3.76847 1.59694
thorax -0.780898 -2.1956 0.614244
lowerneck -4.07463 -8.58174 0.0259088
upperneck -13.072 -11.7565 11.9739
head -2.77149 -6.72656 4.06536
rclavicle 2.14687e-014 -1.96797e-014
rhumerus -225.712 -168.158 119.228
rradius 42.9799
rwrist -157.412
rhand -22.526 6.11339
rfingers 7.12502
rthumb 3.90081 -23.8306
lclavicle 2.14687e-014 -1.96797e-014
lhumerus -79.0026 36.2099 12.5932
lradius 22.6412
lwrist 143.785
lhand -29.0732 8.37342
lfingers 7.12502
lthumb -2.42239 38.3394
rfemur -19.2927 7.31277 24.3967
rtibia 37.4684
rfoot -12.1142 3.73975
rtoes -18.9564
lfemur 19.2824 -1.04753 -15.3282
ltibia 14.5511
lfoot -16.7206 -3.80977
ltoes -17.0822
237
root 0.707243 17.341 -5.72386 168.387 -20.7364 -176.606
lowerback 14.1372 -2.4337 2.49014
upperback 6.69186 -3.6955 1.52324
thorax -0.895714 -2.16696 0.731164
lowerneck -4.08569 -8.49212 -0.0447534
upperneck -13.0055 -11.6391 11.975
head -2.75006 -6.66355 4.07447
rclavicle -3.69739e-014 -1.98785e-016
rhumerus -225.389 -167.118 119.568
rradius 43.3941
rwrist -158.345
rhand -22.1292 5.89892
rfingers 7.12502
rthumb 4.28403 -24.0377
lclavicle -3.69739e-014 -1.98785e-016
lhumerus -78.8238 36.5985 12.9397
lradius 22.5856
lwrist 143.412
lhand -29.6876 8.85956
lfingers 7.12502
lthumb -3.01581 38.818
rfemur -19.7275 7.30995 24.1497
rtibia 37.3607
rfoot -12.353 3.64596
rtoes -19.9079
lfemur 18.9257 -0.535541 -15.595
ltibia 14.4465
lfoot -16.8659 -3.48275
ltoes -17.1605
238
root 0.731588 17.3443 -5.6036 168.55 -20.2327 -176.813
lowerback 14.3171 -2.34642 2.21784
upperback 6.69053 -3.61348 1.43795
thorax -0.983875 -2.13231 0.792818
lowerneck -4.15425 -8.42037 -0.0963557
upperneck -12.9134 -11.55 11.989
head -2.70799 -6.61413 4.0787
rclavicle 3.65267e-015 7.95139e-016
rhumerus -225.096 -166.025 119.852
rradius 43.7936
rwrist -159.372
rhand -21.7203 5.6894
rfingers 7.12502
rthumb 4.67885 -24.2389
lclavicle 3.65267e-015 7.95139e-016
lhumerus -78.1934 36.9779 13.8779
lradius 22.5597
lwrist 143.274
lhand -30.0603 9.02159
lfingers 7.12502
lthumb -3.37572 38.9746
rfemur -20.1529 7.1163 23.9543
rtibia 37.2665
rfoot -12.5843 3.44094
rtoes -20.6907
lfemur 18.4939 0.0453349 -15.7789
ltibia 14.4436
lfoot -16.9337 -3.32248
ltoes -16.6034
239
root 0.756037 17.348 -5.48482 168.715 -19.762 -177.041
lowerback 14.487 -2.25908 1.93837
upperback 6.68091 -3.53185 1.33171
thorax -1.07682 -2.09648 0.836236
lowerneck -4.18708 -8.35759 -0.120769
upperneck -12.834 -11.4712 12.0016
head -2.67783 -6.57183 4.08114
rclavicle 3.55328e-014 9.93923e-016
rhumerus -224.881 -164.892 120.084
rradius 44.2524
rwrist -160.335
rhand -21.4457 5.45717
rfingers 7.12502
rthumb 4.94402 -24.4652
lclavicle 3.55328e-014 9.93923e-016
lhumerus -77.1047 37.2091 15.44
lradius 22.4777
lwrist 143.624
lhand -30.2248 9.1057
lfingers 7.12502
lthumb -3.53457 39.0561
rfemur -20.5576 6.83802 23.7609
rtibia 37.1814
rfoot -12.7713 3.07954
rtoes -21.441
lfemur 18.0139 0.62 -15.9622
ltibia 14.5294
lfoot -16.9817 -3.2727
ltoes -15.5133
240
root 0.779416 17.3527 -5.36636 168.877 -19.3216 -177.266
lowerback 14.633 -2.17174 1.65697
upperback 6.67977 -3.454 1.25427
thorax -1.14635 -2.06356 0.909361
lowerneck -4.24865 -8.31033 -0.24016
upperneck -12.7417 -11.4096 12.0586
head -2.62877 -6.53395 4.1117
rclavicle 6.0853e-014 -1.41137e-014
rhumerus -224.649 -163.848 120.235
rradius 44.753
rwrist -161.237
rhand -21.2143 5.31944
rfingers 7.12502
rthumb 5.16744 -24.5976
lclavicle 6.0853e-014 -1.41137e-014
lhumerus -75.5182 37.3369 17.7825
lradius 22.4333
lwrist 144.5
lhand -30.1907 8.66483
lfingers 7.12502
lthumb -3.50161 38.6158
rfemur -20.9339 6.48296 23.5882
rtibia 37.0947
rfoot -12.9297 2.60046
rtoes -22.2706
lfemur 17.47 1.02687 -16.1992
ltibia 14.7305
lfoot -17.0226 -3.15096
ltoes -14.1138
241
root 0.802823 17.3587 -5.25031 169.032 -18.8763 -177.493
lowerback 14.7443 -2.073 1.38349
upperback 6.6904 -3.36298 1.15382
thorax -1.18741 -2.02351 0.949578
lowerneck -4.34276 -8.26314 -0.278081
upperneck -12.6247 -11.3542 12.0911
head -2.57136 -6.5004 4.11643
rclavicle -2.06239e-014 1.53064e-014
rhumerus -224.435 -162.9 120.193
rradius 45.3256
rwrist -161.993
rhand -20.9584 5.25963
rfingers 7.12502
rthumb 5.4145 -24.6512
lclavicle -2.06239e-014 1.53064e-014
lhumerus -73.8285 37.5005 20.0826
lradius 22.3508
lwrist 145.37
lhand -30.0921 8.21069
lfingers 7.12502
lthumb -3.4064 38.1632
rfemur -21.2766 6.04579 23.4437
rtibia 37.02
rfoot -13.0151 2.02848
rtoes -23.4685
lfemur 16.8948 1.41698 -16.4392
ltibia 14.9961
lfoot -17.0261 -3.01406
ltoes -12.5754
242
root 0.826019 17.3651 -5.137 169.164 -18.4686 -177.684
lowerback 14.8538 -1.98461 1.1354
upperback 6.67158 -3.27818 1.07841
thorax -1.25848 -1.98475 1.00342
lowerneck -4.35122 -8.23278 -0.354468
upperneck -12.5233 -11.3117 12.1287
head -2.53133 -6.47188 4.13607
rclavicle 2.07978e-014 -6.95746e-015
rhumerus -224.284 -162.158 120.061
rradius 45.979
rwrist -162.679
rhand -20.709 5.18999
rfingers 7.12502
rthumb 5.6553 -24.7145
lclavicle 2.07978e-014 -6.95746e-015
lhumerus -72.3819 37.8179 21.8853
lradius 22.2647
lwrist 145.677
lhand -30.046 7.97509
lfingers 7.12502
lthumb -3.3619 37.9283
rfemur -21.5657 5.59113 23.3562
rtibia 36.9631
rfoot -13.0874 1.18085
rtoes -24.997
lfemur 16.2889 1.73841 -16.65
ltibia 15.3264
lfoot -17.0035 -2.85647
ltoes -11.2092
